<svg xmlns="http://www.w3.org/2000/svg" viewBox="0 0 434.37 239.98"><defs><style>.b{fill:#c7b8b7}.c{fill:#202020}.d{fill:#fff;stroke:#000;stroke-miterlimit:10;stroke-width:2px}</style></defs><circle cx="272.45" cy="193.37" r="19.86" fill="#ec4059"/><path d="M275.29 178.43h-1l2.81-4.38 2.81-4.37-.93 5.11-.93 5.12-.56-.56a3.19 3.19 0 00-2.2-.92z"/><path class="b" d="M228.1 99.57s-37.64-1.41-48.7 38.35c-8.61 31 22.59 56.71 42.35 60.18 14.8 2.6 46.35-.65 58.06-28.65.48-1.15 1.07-.11-.35 3.84-1.28 3.58-2.41 7.69-.08 15.63 1.5 5.12 2.59 11.56 5.43 15.59 5.65 8 11.53 16 23.06 23.29s28.23 13.2 43.06 10.59 30.35-15.76 34.12-29.88 4.94-40.94-8.47-50.82"/><path class="b" d="M222.93 98.16S226 41.51 296.34 33c31.06-3.76 59.06 10.59 80 49.18 16.45 30.31 16.13 69.28 6.35 79.06"/><path class="c" d="M228.1 99.57a16.77 16.77 0 00-7.31-.4c-.41 0-1 .17-1.78.29l-1.23.25-.55.11-1.09.26c-.74.17-1.47.38-2.2.58-1.48.42-2.95.92-4.43 1.46a52.75 52.75 0 00-8.7 4.29 47.71 47.71 0 00-14.75 14.31 56.09 56.09 0 00-5.07 9.54c-.35.84-.65 1.71-1 2.56s-.62 1.73-.88 2.61-.57 1.74-.79 2.65-.45 1.81-.64 2.72a40.51 40.51 0 001.94 22.28 54.9 54.9 0 0012.22 18.79 66.53 66.53 0 0017.63 13 49.36 49.36 0 0010 3.75 48.61 48.61 0 0010.27 1.18c13.47.18 25.8-3.69 34.5-9.69a44.94 44.94 0 0010.39-9.81 46 46 0 005.57-9.41l.45-1 .07-.15-.06-.05a4.08 4.08 0 01-.39-.31c-.1-.15-.15-.16-.15-.26l-.1.11c-.05 0-.09 0-.16.06a.77.77 0 01-.25.1 1.11 1.11 0 01-.25.05c-.06 0 0 0 0 0a3.51 3.51 0 010 .66c0 .26-.1.53-.16.79a26.24 26.24 0 01-.84 2.68 24 24 0 00-.72 2.39l-.14.63c-.08.42-.2 1-.3 1.86a23.6 23.6 0 00.39 7.11c.27 1.48.75 3.16 1.22 4.84s1 3.61 1.49 5.62a40.8 40.8 0 002.24 6.42c.27.55.56 1.11.89 1.66s.7 1.09 1.06 1.58l2.22 3.09a80.84 80.84 0 0011.22 12.73 72.56 72.56 0 0015.9 10.75 75 75 0 0019.66 6.75c7.05 1.28 14.67 1.47 21.92-.73a45.47 45.47 0 0010.28-4.64 49.82 49.82 0 009-6.88 46.64 46.64 0 007.17-8.74 35.38 35.38 0 004.44-10.37 83.84 83.84 0 002.24-21.57 65.14 65.14 0 00-1.1-10.42 48.49 48.49 0 00-1.24-5c-.28-.81-.52-1.62-.84-2.4-.16-.39-.3-.79-.48-1.17l-.34-.76a26.71 26.71 0 00-2.22-4 12.08 12.08 0 00-5.71-4.68c1.59 2 2.46 3.4 4.09 5.76a26.86 26.86 0 012.06 3.73l.32.71c.17.36.29.74.44 1.11.31.74.54 1.51.8 2.28a46.17 46.17 0 011.19 4.77 62.07 62.07 0 011.06 10.11 81.8 81.8 0 01-2.18 21c-1.65 6.92-5.84 13.14-11.06 18.16a46.83 46.83 0 01-18.46 11.06c-6.84 2.08-14.17 1.92-21 .69a72.86 72.86 0 01-19.17-6.59 70.76 70.76 0 01-15.47-10.46 79.56 79.56 0 01-11-12.43l-2.2-3.06c-.37-.51-.69-1-1-1.46s-.55-1-.79-1.48a39 39 0 01-2.13-6.11c-.53-2-1-3.89-1.48-5.62s-.93-3.26-1.19-4.69a21.68 21.68 0 01-.37-6.52c.09-.74.19-1.3.27-1.68l.13-.57s.17-.77.66-2.22a28.75 28.75 0 00.9-2.86c.07-.3.14-.62.19-1a4.37 4.37 0 000-1.24 2.32 2.32 0 00-.06-.27l-.06-.15a1 1 0 00-.16-.27l-.11-.13a.59.59 0 00-.19-.14 1 1 0 00-.62-.16 1.27 1.27 0 00-.46.13.76.76 0 00-.23.16 2.39 2.39 0 00-.53.8l-.43 1a44.3 44.3 0 01-5.34 9 42.77 42.77 0 01-9.95 9.39c-8.32 5.75-20.28 9.52-33.36 9.34a47 47 0 01-9.84-1.12 48 48 0 01-9.58-3.6 64.68 64.68 0 01-17.1-12.61 53.14 53.14 0 01-11.79-18.12 38.49 38.49 0 01-1.85-21.21c.18-.87.41-1.73.61-2.6s.51-1.71.76-2.56.53-1.7.85-2.53.61-1.66.95-2.48a53.82 53.82 0 014.88-9.2 45.68 45.68 0 0114.16-13.73 49.46 49.46 0 018.36-4.12c1.42-.53 2.84-1 4.26-1.41.72-.19 1.42-.4 2.13-.56l1.06-.25.52-.11 1.19-.24c.73-.12 1.32-.24 1.71-.29a67.85 67.85 0 007.1-1.42z"/><path class="c" d="M222.93 98.16a54.17 54.17 0 002.07-6.89c.09-.39.23-1 .41-1.7.1-.36.2-.75.32-1.17l.28-1c.13-.45.27-.9.41-1.36.27-.92.6-1.84.92-2.77s.71-1.86 1.07-2.81.8-1.87 1.2-2.83A69 69 0 01245 56a74.7 74.7 0 0111.12-8.65 87.47 87.47 0 0112.59-6.46 108.81 108.81 0 0126.18-6.72 72.29 72.29 0 0122.74.24l1.21.18 1.16.28 2.24.53c.73.18 1.44.33 2.12.52l1.95.64c1.25.43 2.44.77 3.5 1.19l2.85 1.25c.86.38 1.66.67 2.3 1l1.63.87 1.36.73 1.35.72c.88.49 2.1 1.33 3.69 2.34s3.4 2.45 5.53 4c1.09.77 2.08 1.79 3.22 2.77s2.33 2 3.44 3.24a105.66 105.66 0 0114.3 17.88c.58.89 1.16 1.79 1.76 2.7s1.1 1.88 1.66 2.83l1.67 2.9c.57 1 1.12 2 1.63 3a103.32 103.32 0 015.56 12.72 116.38 116.38 0 016.24 27.66 98 98 0 01.44 13.74c-.08 2.24-.29 4.43-.55 6.57-.16 1.06-.3 2.13-.51 3.16-.1.52-.19 1-.32 1.54s-.19.85-.29 1.27a38.5 38.5 0 01-1.28 4.09c-.27.68-.49 1.28-.72 1.83s-.42 1.07-.63 1.57a23.65 23.65 0 01-1.43 3.09 10.52 10.52 0 002.66-2.36 9.31 9.31 0 001-1.51 14.23 14.23 0 00.9-1.91 37.06 37.06 0 001.38-4.32l.3-1.33c.13-.52.23-1.06.33-1.6.22-1.07.36-2.16.53-3.26.26-2.21.48-4.46.56-6.75a100.2 100.2 0 00-.44-14 118.48 118.48 0 00-6.34-28.11 105.49 105.49 0 00-5.66-13c-.52-1-1.08-2-1.66-3l-1.69-2.93c-.57-1-1.09-1.94-1.69-2.87l-1.78-2.74a107.48 107.48 0 00-14.56-18.2c-1.13-1.25-2.39-2.27-3.52-3.31s-2.18-2-3.3-2.83a68.53 68.53 0 00-5.67-4.14c-1.64-1-2.89-1.91-3.79-2.41l-1.39-.74-1.4-.75-1.68-.89c-.66-.36-1.47-.66-2.36-1.06l-3-1.27c-1.09-.43-2.32-.79-3.61-1.23l-2-.66c-.7-.2-1.44-.35-2.18-.54l-2.27-.5-1.2-.28-1.24-.19a74.31 74.31 0 00-23.34-.25 110.38 110.38 0 00-26.66 6.85A88.68 88.68 0 00255 45.71a76.87 76.87 0 00-11.42 8.88 70.7 70.7 0 00-15.78 22.19c-.42 1-.85 1.94-1.25 2.91s-.76 1.92-1.09 2.88-.67 1.9-.94 2.85l-.43 1.4c-.1.36-.19.71-.29 1.06s-.22.84-.32 1.21c-.18.75-.32 1.35-.41 1.75a17.69 17.69 0 00-.14 7.32z"/><path class="d" d="M288.63 83.82a13.49 13.49 0 01-1.73 19c-5.72 4.76-13.22 3-18-2.73s-5-13.22.73-18a13.49 13.49 0 0119 1.73z"/><circle cx="279.95" cy="97.17" r="8.43"/><path class="d" d="M347.63 113.45c0 7-6.11 11.52-13.64 11.52s-13.65-5.68-13.65-12.7 6.11-12.71 13.66-12.71 13.63 6.87 13.63 13.89z"/><circle cx="328.77" cy="114.03" r="8.43"/><path d="M277.14 60.98l24.61-1.88 3.3 12.23m23.72 7.64l10.39-5.99 18.36 16.94" stroke-linejoin="round" stroke-width="3" fill="none" stroke-linecap="round" stroke="#000"/><path class="b" d="M306.21 21.69s-34-24.43-67-20.24c-18.58 2.35-23.29 14.82-28.94 24.47S188.7 64 188.1 99.56c-.07 4.71 43.22-10.8 67.53-32.23 26.12-20.94 49.42-43.53 49.42-43.53M360.93 40s41.67 3.65 64 28.4c12.56 13.91 8 26.43 6 37.43s-8.54 42.9-31.28 70.24c-3 3.62-25.7-36.38-30.16-68.48-6.13-32.91-9.05-65.23-9.05-65.23"/><path d="M188.1 98.16s4-41.54 7.88-41.54c6.48 0 17.07 14.71 17.07 14.71s9.41 16 3.76 20.1-24 10.02-28.71 6.73zm173.17-47.47s13.19 3.23 20.48 13.11 2.67 9.89 5.81 17.65 5.72 12.71 7.37 21.18a50.23 50.23 0 010 16.94s-3.21 10.32-5.49 12.1-9.09 4.3-12.86 0c-5.89-6.67-15.31-80.98-15.31-80.98z" fill="#fff"/><path class="c" d="M306.21 21.69a21.29 21.29 0 00-5.56-4.69l-1.54-.91-1.11-.66-1.1-.61-1.44-.82c-1-.55-2-1.08-3-1.61-2.08-1.05-4.23-2.1-6.47-3.09A106 106 0 00255.76.54 68.84 68.84 0 00239 .48c-5.59.75-11.25 2.56-15.78 6.05s-7.82 8.15-10.42 12.78c-1.32 2.32-2.56 4.59-3.85 6.81s-2.53 4.47-3.7 6.66a171 171 0 00-10.63 24.71 151.14 151.14 0 00-4.83 18c-.41 2.19-.76 3.9-.95 5.07l-.25 1.8-.26 1.8c-.09.58-.19 1.31-.31 2.16s-.18 1.85-.29 3l-.32 3.68c-.06 1.35-.12 2.81-.19 4.38l-.05 1.19v.78a2.53 2.53 0 000 .28 4.12 4.12 0 00.12.59 1.78 1.78 0 00.83.86 4.05 4.05 0 00.56.21l.42.08a8.3 8.3 0 001.49 0 30.58 30.58 0 005.62-1.08 154.31 154.31 0 0025.05-9.84 180.64 180.64 0 0027.33-16.18c2.23-1.63 4.42-3.36 6.55-5.17s4.28-3.5 6.41-5.26c4.29-3.54 8.53-7.1 12.67-10.67s8.19-7.12 12.08-10.63c1.94-1.75 3.86-3.48 5.74-5.19l5.27-4.84 3.22-3a25.13 25.13 0 004.56-5.67 27.66 27.66 0 00-5.89 4.25l-3.23 3-5.26 4.83-5.71 5.15c-3.89 3.5-7.93 7-12.05 10.6s-8.36 7.12-12.64 10.64c-2.13 1.77-4.34 3.46-6.43 5.29s-4.24 3.47-6.44 5.07a176.24 176.24 0 01-27 16 152.59 152.59 0 01-24.7 9.73 30.27 30.27 0 01-5.24 1 6.65 6.65 0 01-1.1 0h-.21c-.09 0 0 0 0 0 0-.67.06-1.32.08-1.94.07-1.55.13-3 .19-4.32s.24-2.53.34-3.63.2-2.07.28-2.91l.31-2.14c.17-1.16.25-1.77.25-1.77l.26-1.77c.19-1.15.53-2.84.93-5a148.11 148.11 0 014.78-17.77A170.2 170.2 0 01207 33.7c1.16-2.18 2.37-4.39 3.66-6.6s2.56-4.54 3.86-6.82c2.57-4.56 5.65-9 9.9-12.18a30.88 30.88 0 0114.84-5.67 67 67 0 0116.26.06 104 104 0 0129.61 8.61c2.21 1 4.33 2 6.38 3.05 1 .53 2 1 3 1.58l1.46.8 1.08.61 1.06.61 1.52.88a35.42 35.42 0 006.58 3.06zM360.93 40a35.28 35.28 0 007 2l1.73.31 1.21.23 1.21.25 1.62.35c1.1.23 2.2.49 3.32.76 2.23.55 4.51 1.15 6.82 1.85a104.08 104.08 0 0128.06 12.79 66.44 66.44 0 0112.36 10.56 30.86 30.86 0 017.55 14c1.14 5.19.59 10.56-.44 15.69-.5 2.57-1.06 5.15-1.52 7.69s-1 5-1.53 7.39a168.3 168.3 0 01-8 25.35 148 148 0 01-8 16.58c-1.1 1.9-1.94 3.4-2.55 4.4l-1 1.51-2.21 3.46c-1 1.39-2.33 3.4-4.37 6.07l-3.19 4.03a3.62 3.62 0 01-.54-.38 11.73 11.73 0 01-1.17-1.17 33.26 33.26 0 01-2.33-3c-2.06-2.88-7.53-11.83-13.05-24.79a187.67 187.67 0 01-7.89-22 128.27 128.27 0 01-2.95-12.61c-.65-4.35-1.57-8.85-2.29-13.31-1.52-9-2.88-18-4-26.86-.59-4.4-1.13-8.74-1.63-13-.2-1.75-.39-3.45-.58-5.08s-.32-2.91-.4-3.61a28 28 0 00-1.69-7.06 25.13 25.13 0 00-.25 7.27l.39 3.62c.19 1.63.38 3.33.58 5.08.5 4.23 1 8.58 1.63 13 1.16 8.84 2.53 18 4.05 26.93.74 4.51 1.63 8.88 2.3 13.33s1.83 8.69 3 12.8a189 189 0 008 22.25c5.57 13.08 11.1 22.14 13.24 25.14a38.86 38.86 0 002.47 3.22 13.93 13.93 0 001.39 1.38 5.45 5.45 0 00.88.61 2.73 2.73 0 00.75.25 1.75 1.75 0 00.79 0 2.08 2.08 0 00.67-.41 1.68 1.68 0 00.25-.29l.13-.16.49-.62.94-1.19 1.7-2.16c2.06-2.71 3.4-4.75 4.43-6.16l2.25-3.51 1-1.53c.62-1 1.47-2.54 2.59-4.46a149.25 149.25 0 008.08-16.8 171.69 171.69 0 008.07-25.66c.54-2.43 1.08-4.92 1.54-7.46s1-5.05 1.53-7.68c1-5.2 1.66-10.89.43-16.48s-4.26-10.66-8-14.88A69.07 69.07 0 00413 56.88a106 106 0 00-28.59-13c-2.35-.71-4.67-1.32-6.93-1.88-1.13-.27-2.25-.53-3.36-.77l-1.65-.35-1.23-.25-1.24-.27-1.75-.31a21.09 21.09 0 00-7.32-.05z"/><path d="M279.81 169.45s17.82-2.41 29-12.23c7.29-6.41-9.47-18.36-14.5-21.18s-16.07-5.88-22.79-3.53-4.83 8.94-4.83 8.94 6.36 19.77 11.86 25.65a6.06 6.06 0 011.26 2.35z"/><path d="M5.52 140.16s-16.63 45.63 18 72.7c23.83 18.64 39.53 22.59 49.76 23.65s38.82 1.76 38.82 1.76a39.74 39.74 0 0017.65-1.76c9.53-3.18 24.35-14.82 40.94-34.24s21.18-38.11 21.18-38.11 7.12-23.65 2.53-40.94-18.77-35.65-27.94-39.89l-7.06-13.06-6-9a64.297 64.297 0 00-3.54-4.83l-5.64-7c-1.32-1.45-3.7-2.35-5.3-2.86-2.08-.66-6 .92-7.41 1.88a80.91 80.91 0 00-22.24 23.24l-3.35-.47a51.1 51.1 0 00-13.42-.1c-6.48.8-15.82 2.22-21 4.16-9.47 3.54-23.3 11.58-28.94 20L32 91.1s-14.47-4.24-25.41.7-2.49 44.83-2.49 44.83" fill="#f7b160"/><path d="M124.52 77.33s14.11-2 27.41 3.59l-3.11-8.51A24 24 0 00145 65.6c-1.32-1.63-2.91-3.12-4.3-3.15a8.75 8.75 0 00-5.33 1.82s-8.68 7.36-10.85 13.06z"/><path class="c" d="M5.52 140.16a18.87 18.87 0 00-2.87 6.72c-.1.4-.23 1-.38 1.75L2 149.86l-.14.77c-.1.53-.19 1.07-.27 1.61-.18 1.08-.32 2.17-.46 3.27-.22 2.21-.43 4.49-.51 6.74a72.85 72.85 0 00.73 14.06 62.55 62.55 0 003.88 14.24A56 56 0 0013 203.76a62 62 0 0011.31 10.92c4.15 3.23 8.53 6.28 13.07 9.14a112.36 112.36 0 0014.27 7.7 73.81 73.81 0 0015.59 5.06c5.41 1.11 10.89 1.3 16.28 1.63s10.8.49 16.16.67l8 .25 4 .11h.32l.53.07 1 .1q1 .09 2 .12a41.69 41.69 0 0015.77-2.6 59.28 59.28 0 0013.32-8 132.8 132.8 0 0011.38-9.65c3.53-3.36 6.84-6.79 10-10.22s6.09-6.86 8.83-10.33a113.41 113.41 0 0012.93-21 94.23 94.23 0 004.1-10.12 96.35 96.35 0 002.53-9.48 111.07 111.07 0 002.29-15.63 70.63 70.63 0 00.08-10.13c-.09-1.16-.14-2.06-.21-2.65l-.12-.91-.13-.88a26 26 0 00-.52-2.91 57.14 57.14 0 00-4.51-13 83.33 83.33 0 00-5.65-10.2 78.24 78.24 0 00-9.51-12.15 39.12 39.12 0 00-7.17-6c-.35-.24-.75-.42-1.12-.63l-.57-.31s-.14-.08-.1-.05L166 80.46l-2.5-4.64-2.64-4.88-.34-.63c-.13-.22-.19-.38-.4-.7l-.8-1.21-1.64-2.47-3.4-5.12c-1.24-1.72-2.53-3.49-3.86-5.27l-2.91-3.62-1.64-2.05-.87-1.09a7.27 7.27 0 00-1.26-1.11 13.52 13.52 0 00-2.87-1.5c-.5-.2-1-.39-1.54-.55a5.3 5.3 0 00-2-.23 12.64 12.64 0 00-3.56.82 17.91 17.91 0 00-1.71.73 11.82 11.82 0 00-1.65 1 75.38 75.38 0 00-12.07 10.44 87.62 87.62 0 00-5.75 6.71 66.19 66.19 0 00-2.7 3.74c-.23.32-.45.65-.65 1l-.5.77h-.17l-1.17-.17a55.13 55.13 0 00-9.8-.68q-2.52.06-5.07.36c-1.68.21-3.36.43-5.06.68-3.39.5-6.83 1.07-10.31 1.84A54.09 54.09 0 0072 74c-1.74.61-3.39 1.3-5.06 2A80.51 80.51 0 0048.1 87.82a41.59 41.59 0 00-4.08 4 26.37 26.37 0 00-1.8 2.27L41 93.61l-5.2-2.07-2.62-1-.66-.26a2.41 2.41 0 00-.43-.14l-.36-.1c-.47-.12-.93-.23-1.4-.33a52 52 0 00-11.4-1.24 32.6 32.6 0 00-11.34 1.88l-1.36.53a9.3 9.3 0 00-1.38.85 7.5 7.5 0 00-1.14 1.11l-.5.61c-.14.21-.26.43-.4.65a17.67 17.67 0 00-2 5.5 38.46 38.46 0 00-.71 5.6c-.1 1.86-.1 3.7-.1 5.54.07 3.66.35 7.27.75 10.82l.31 2.65.15 1.14v.27l.14 1 .47 3a22.85 22.85 0 002.23 6.93 31.11 31.11 0 00-.31-7.24l-.44-3-.15-1v-.27L3 124l-.31-2.62c-.39-3.5-.67-7.06-.73-10.64 0-1.79 0-3.59.1-5.38a36.32 36.32 0 01.69-5.36 15.85 15.85 0 011.74-4.88c.11-.18.21-.37.33-.54l.38-.47a5.55 5.55 0 01.85-.83 6.52 6.52 0 011-.6l1.24-.49A30.59 30.59 0 0119 90.4a50.53 50.53 0 0111 1.2c.45.09.9.2 1.34.31l.33.09.23.08.66.26 2.62 1 5.23 2.07 1.4.55.66.26.33.13c.1 0 .24.16.29 0l.83-1.15a24.28 24.28 0 011.68-2.11 39 39 0 013.89-3.82 78.45 78.45 0 0118.25-11.42c1.61-.72 3.26-1.42 4.89-2a47.5 47.5 0 015-1.37c3.4-.76 6.81-1.33 10.17-1.82 1.68-.24 3.35-.47 5-.67s3.26-.31 4.88-.35a53.13 53.13 0 019.48.66l1.17.17 1 .14h.29a.71.71 0 00.14 0l.08-.12.32-.5.76-1.19c.2-.33.41-.64.63-1a66.62 66.62 0 012.63-3.65 87.24 87.24 0 015.62-6.56 74 74 0 0111.75-10.16 9.77 9.77 0 011.42-.86c.5-.24 1-.46 1.52-.65a11 11 0 013-.7 3.34 3.34 0 011.25.14c.49.16 1 .32 1.42.51a11.62 11.62 0 012.46 1.28 5 5 0 01.9.78l.86 1.08c.57.7 1.12 1.38 1.64 2l2.89 3.59c1.3 1.74 2.54 3.46 3.76 5.13l3.39 5.27 1.64 2.47.8 1.21c.06.07.2.36.31.55l.34.63 2.64 4.88 2.5 4.64 1.24 2.28c.11.17.16.41.38.47l.48.26.51.28a10 10 0 011 .57 37.33 37.33 0 016.8 5.73 75.75 75.75 0 019.3 11.86 80.08 80.08 0 015.52 10 55.43 55.43 0 014.37 12.58 22.88 22.88 0 01.5 2.79l.12.85.12.87c.07.58.12 1.44.21 2.57a69.84 69.84 0 01-.08 9.86 110.35 110.35 0 01-2.26 15.36 95.22 95.22 0 01-2.47 9.27 92.9 92.9 0 01-4 9.91 111.09 111.09 0 01-12.71 20.68c-2.68 3.4-5.61 6.82-8.73 10.21s-6.39 6.8-9.88 10.12a129.57 129.57 0 01-11.15 9.56 56.6 56.6 0 01-12.86 7.7 39.63 39.63 0 01-15 2.47c-.65 0-1.29-.06-1.93-.11l-.95-.1-.46-.06h-.62l-4-.11-8-.25c-5.36-.19-10.74-.4-16.13-.67s-10.79-.52-16-1.59a71.85 71.85 0 01-15.18-4.94 110.55 110.55 0 01-14-7.56c-4.47-2.83-8.8-5.84-12.91-9a59.18 59.18 0 01-11-10.58 53.31 53.31 0 01-7.47-12.86A59.78 59.78 0 013.3 176a70.56 70.56 0 01-.72-13.69c.08-2.23.28-4.43.53-6.58.13-1.08.27-2.15.45-3.2.08-.53.16-1.06.26-1.58l.14-.75.23-1.2c.15-.73.27-1.32.36-1.71a44.17 44.17 0 00.97-7.13z"/><path d="M13.46 126s6.7-12.35 18.88-18c0 0-11.19-6.3-17-4.84-3.71.93-4.59 2.56-5 4.55C8.88 114 13.46 126 13.46 126z"/><path d="M46.22 174.39s-.94-6.82 7.06-12.47 15.3 1.41 15.3 1.41m55.18-26.77s-.23-7.08 8.48-11.56c6.92-3.55 15 3.21 15 3.21" stroke-width="4" fill="none" stroke-linecap="round" stroke-miterlimit="10" stroke="#000"/><path d="M126.47 193.71a9.17 9.17 0 01-9.18 9.17c-5.07 0-9.55-4.12-9.18-9.17.09-1.22 2.92-7.44 9.18-5.65 2.81.8 9.18-2.61 9.18 5.65z" fill="#ed4059"/><path d="M110.67 180.39s3.81 6.29-2.28 14-15.08 2.93-15.08 2.93" stroke-width="3" fill="none" stroke-linecap="round" stroke-miterlimit="10" stroke="#000"/><path d="M110.78 181.13s1.91 7.71 11.2 7.73 10.37-8.66 10.37-8.66" stroke-width="2.88" fill="none" stroke-linecap="round" stroke-miterlimit="10" stroke="#000"/><path d="M114.59 178.81l1.17-10.21a4.31 4.31 0 00-4.76-4.83c-3.1.35-7.1 2.35-9.8 3.93l-.54.31a4.31 4.31 0 00-.89 6.75l7.49 6.54a4.31 4.31 0 007.33-2.49z"/><path d="M47.2 188.93a9.83 9.83 0 00-3.36.84 22.72 22.72 0 00-5.94 3.42c-2.12 2-3.88 3.17-4.77 6.61a17.55 17.55 0 00-.38 4.57 12.08 12.08 0 006 10.19l.76.42a17.92 17.92 0 008 1.69 13.15 13.15 0 009.67-4 10.18 10.18 0 001.7-2.4 21.18 21.18 0 001.09-2.55 12.87 12.87 0 00.05-8.51 13.85 13.85 0 00-1.85-3.93c-1.58-1.95-3-3.66-5.47-4.86-1.6-.7-2.91-1.64-5.5-1.49zm129.16-48.61a12.3 12.3 0 00-4.89-1.79c-1.65-.23-2.19-.13-5 .66-3.14.87-7.15 3.79-8.47 5.82s-1.94 2.82-2 5.21-.82 5.29.7 8.55c1.86 4 8.21 7.06 8.21 7.06s6.79 1.42 10.41-.17c1.64-.72 3.37-2.56 4.77-4.36a16.33 16.33 0 003.44-9.52 15.5 15.5 0 00-.53-5.18c-.86-2.41-4.38-4.89-6.64-6.28z" fill="#ffdfba"/><path d="M132.35 167.06s2.87-7.14 12.93-10.49 13.41-3.53 16.59-3.35m-26.36 19.41a19.92 19.92 0 0110.59-7.24c7.06-1.94 21.21-5.11 23.89-4.41m-31.06 13.41a16.34 16.34 0 0112-3c7.06 1.06 13.23 4.24 16.23 7.59m-82.76 9.88a45.1 45.1 0 00-20.47.7 49.3 49.3 0 00-17.74 9.16m31.33-3.41a29 29 0 00-12.23 3.41C59 202.1 47.87 214.1 47.87 214.1m36.53-18s-8.3 4.15-12.71 8.61a27.09 27.09 0 00-7.23 12.21" fill="none" stroke-linecap="round" stroke-width="2" stroke-miterlimit="10" stroke="#000"/></svg>