<svg xmlns="http://www.w3.org/2000/svg" viewBox="0 0 40.43 22.33"><defs><style>.a{fill:#ec4059;}.b{fill:#c7b8b7;}.c{fill:#202020;}.d,.f{fill:#fff;}.d,.e,.h,.j,.k,.m{stroke:#000;}.d,.h,.j,.k,.m{stroke-miterlimit:10;}.d,.m{stroke-width:0.19px;}.e,.h,.j,.k,.m{fill:none;stroke-linecap:round;}.e{stroke-linejoin:round;}.e,.j{stroke-width:0.28px;}.g{fill:#f7b160;}.h{stroke-width:0.37px;}.i{fill:#ed4059;}.k{stroke-width:0.27px;}.l{fill:#ffdfba;}</style></defs><circle class="a" cx="25.36" cy="17.99" r="1.85"/><path d="M27,30.11h-.08l.26-.41.26-.41-.09.48-.09.47-.05,0A.3.3,0,0,0,27,30.11Z" transform="translate(-1.33 -13.5)"/><path class="b" d="M22.56,22.77A4.67,4.67,0,0,0,18,26.34c-.8,2.88,2.1,5.27,3.94,5.6,1.38.24,4.32-.06,5.4-2.67.05-.11.1,0,0,.36a2.08,2.08,0,0,0,0,1.45,5.28,5.28,0,0,0,.51,1.45A7.1,7.1,0,0,0,30,34.7a6,6,0,0,0,4,1,4.29,4.29,0,0,0,3.18-2.78c.35-1.32.46-3.81-.79-4.73" transform="translate(-1.33 -13.5)"/><path class="b" d="M22.08,22.64s.29-5.28,6.83-6.07c2.89-.35,5.5,1,7.45,4.58,1.53,2.82,1.5,6.44.59,7.35" transform="translate(-1.33 -13.5)"/><path class="c" d="M22.56,22.77a1.52,1.52,0,0,0-.68,0l-.16,0-.12,0a5.15,5.15,0,0,0-1.58.63,4.87,4.87,0,0,0-2.14,3.2,4.31,4.31,0,0,0,1.31,3.82,5,5,0,0,0,3.53,1.66,5.58,5.58,0,0,0,3.21-.9,4.18,4.18,0,0,0,1.48-1.79l.05-.09s0,0,0,0,0,0,0,0a.12.12,0,0,1-.06,0,.25.25,0,0,1,0,.14c0,.1,0,.18-.07.25s-.07.22-.07.22a1.75,1.75,0,0,0,0,.89c0,.29.15.6.25,1a3,3,0,0,0,.21.59,3.35,3.35,0,0,0,.39.59,6.7,6.7,0,0,0,2.52,2.19,5.49,5.49,0,0,0,3.87.56,4.31,4.31,0,0,0,2.87-2.85A6.41,6.41,0,0,0,37.12,29a4,4,0,0,0-.21-.37,1.13,1.13,0,0,0-.53-.43c.14.19.23.31.38.53a3.09,3.09,0,0,1,.19.35,6.21,6.21,0,0,1,.15,3.72,4.12,4.12,0,0,1-2.74,2.72A5.23,5.23,0,0,1,30.62,35a6.49,6.49,0,0,1-2.46-2.12,2.75,2.75,0,0,1-.57-1.13c-.09-.37-.19-.7-.25-1a1.65,1.65,0,0,1,0-.82,1,1,0,0,1,.06-.2,2.3,2.3,0,0,0,.08-.27.59.59,0,0,0,0-.2.18.18,0,0,0,0-.06s-.14-.07-.16,0a.19.19,0,0,0-.05.08l0,.09A4.13,4.13,0,0,1,25.83,31a5.46,5.46,0,0,1-3.11.87,4.83,4.83,0,0,1-3.4-1.61,4.15,4.15,0,0,1-1.26-3.66,4.73,4.73,0,0,1,2.06-3.08,5.15,5.15,0,0,1,1.52-.6l.11,0,.16,0C22.18,22.87,22.33,22.82,22.56,22.77Z" transform="translate(-1.33 -13.5)"/><path class="c" d="M22.08,22.64c.08-.23.13-.38.2-.65l0-.15,0-.11a7.53,7.53,0,0,1,.37-1,6.62,6.62,0,0,1,3.64-3.4,8.68,8.68,0,0,1,4.54-.62,6,6,0,0,1,1.4.43,4.74,4.74,0,0,1,.5.24,6.79,6.79,0,0,1,1.6,1.22,11.34,11.34,0,0,1,2.47,3.91,9.36,9.36,0,0,1,.46,5,1.71,1.71,0,0,1-.12.38,4.16,4.16,0,0,1-.25.6,1,1,0,0,0,.42-.53,2.51,2.51,0,0,0,.13-.41A9.52,9.52,0,0,0,37,22.44a11.5,11.5,0,0,0-2.51-4,6.88,6.88,0,0,0-1.65-1.25,2.93,2.93,0,0,0-.5-.26,6.22,6.22,0,0,0-1.45-.43,8.82,8.82,0,0,0-4.64.62,6.82,6.82,0,0,0-3.74,3.5,6.19,6.19,0,0,0-.37,1l0,.11,0,.17A1.75,1.75,0,0,0,22.08,22.64Z" transform="translate(-1.33 -13.5)"/><path class="d" d="M28.2,21.3A1.26,1.26,0,0,1,28,23.07a1.15,1.15,0,0,1-1.67-.26,1.14,1.14,0,0,1,.07-1.67A1.26,1.26,0,0,1,28.2,21.3Z" transform="translate(-1.33 -13.5)"/><circle cx="26.05" cy="9.04" r="0.78"/><path class="d" d="M33.69,24.06a1.15,1.15,0,0,1-1.27,1.07,1.18,1.18,0,1,1,0-2.36A1.32,1.32,0,0,1,33.69,24.06Z" transform="translate(-1.33 -13.5)"/><circle cx="30.6" cy="10.61" r="0.78"/><polyline class="e" points="25.79 5.67 28.08 5.5 28.39 6.64"/><polyline class="e" points="30.6 7.35 31.57 6.79 33.27 8.37"/><path class="b" d="M29.83,15.52s-3.16-2.27-6.24-1.88c-1.73.21-2.17,1.37-2.69,2.27a14.42,14.42,0,0,0-2.06,6.86c0,.43,4-1,6.28-3,2.44-1.95,4.6-4,4.6-4" transform="translate(-1.33 -13.5)"/><path class="b" d="M34.92,17.22s3.88.34,6,2.65c1.17,1.29.75,2.46.56,3.48a14.53,14.53,0,0,1-2.91,6.54c-.28.33-2.39-3.39-2.81-6.38s-.84-6.07-.84-6.07" transform="translate(-1.33 -13.5)"/><path class="f" d="M18.84,22.64s.37-3.87.73-3.87c.61,0,1.59,1.37,1.59,1.37s.88,1.48.35,1.87S19.28,22.94,18.84,22.64Z" transform="translate(-1.33 -13.5)"/><path class="f" d="M35,18.22a3.75,3.75,0,0,1,1.9,1.22c.68.92.25.92.54,1.64a9.38,9.38,0,0,1,.69,2,4.8,4.8,0,0,1,0,1.58,4,4,0,0,1-.51,1.12c-.21.17-.85.4-1.2,0C35.83,25.13,35,18.22,35,18.22Z" transform="translate(-1.33 -13.5)"/><path class="c" d="M29.83,15.52a2.08,2.08,0,0,0-.52-.44L29.17,15l-.1-.05c-.29-.17-.72-.39-1.12-.57a9.88,9.88,0,0,0-2.81-.82,4.25,4.25,0,0,0-3,.56,3.66,3.66,0,0,0-1,1.19l-.7,1.25a15.16,15.16,0,0,0-1,2.3,12.23,12.23,0,0,0-.56,2.32,5.08,5.08,0,0,0-.08.64,7.41,7.41,0,0,0,0,.75.59.59,0,0,0,0,.26c.09.16.23.11.3.11a2.51,2.51,0,0,0,.52-.1,16.69,16.69,0,0,0,4.88-2.42c1.6-1.26,3.24-2.69,4.53-3.89l.3-.28a2.18,2.18,0,0,0,.42-.52,2.61,2.61,0,0,0-.54.39l-.31.28C27.59,17.58,26,19,24.36,20.26a16.59,16.59,0,0,1-4.82,2.4,3.08,3.08,0,0,1-.48.09c-.08,0-.15,0-.13,0v-.18c0-.29,0-.54,0-.74a5.08,5.08,0,0,1,.08-.64,12.28,12.28,0,0,1,.55-2.28,15.4,15.4,0,0,1,1-2.27l.7-1.25a3.51,3.51,0,0,1,.92-1.14,4,4,0,0,1,2.89-.51,9.85,9.85,0,0,1,2.76.79c.4.18.82.4,1.11.57l.1.05.14.08A3.34,3.34,0,0,0,29.83,15.52Z" transform="translate(-1.33 -13.5)"/><path class="c" d="M34.92,17.22a3.82,3.82,0,0,0,.65.19l.16,0,.12,0a11,11,0,0,1,1.2.3A9.36,9.36,0,0,1,39.66,19a4.09,4.09,0,0,1,1.86,2.28,3.78,3.78,0,0,1,0,1.46l-.29,1.4a14.68,14.68,0,0,1-.74,2.36,12,12,0,0,1-1.07,2.1,5.61,5.61,0,0,1-.35.53c-.12.17-.27.37-.45.59l-.11.14a.72.72,0,0,1-.1-.08,2.66,2.66,0,0,1-.31-.39A16.86,16.86,0,0,1,36,24.39c-.4-2-.71-4.14-.9-5.88l0-.41a3,3,0,0,0-.16-.66,2.51,2.51,0,0,0,0,.68l0,.41c.19,1.75.5,3.9.9,5.9a17.07,17.07,0,0,0,2.11,5,2.74,2.74,0,0,0,.34.41s.13.17.3.12a.85.85,0,0,0,.17-.2,7.54,7.54,0,0,0,.46-.6c.24-.33.36-.54.36-.54a12.69,12.69,0,0,0,1.08-2.12,16.16,16.16,0,0,0,.75-2.39l.29-1.41a3.92,3.92,0,0,0,0-1.53,4.23,4.23,0,0,0-1.94-2.39,10,10,0,0,0-2.65-1.22,12,12,0,0,0-1.23-.3l-.11,0-.17,0A2,2,0,0,0,34.92,17.22Z" transform="translate(-1.33 -13.5)"/><path d="M27.37,29.27a5.83,5.83,0,0,0,2.7-1.14c.68-.59-.88-1.71-1.35-2a3.16,3.16,0,0,0-2.12-.33.68.68,0,0,0-.45.83,9.66,9.66,0,0,0,1.11,2.39A.57.57,0,0,1,27.37,29.27Z" transform="translate(-1.33 -13.5)"/><path class="g" d="M1.85,26.54S.3,30.79,3.52,33.31a8.87,8.87,0,0,0,4.63,2.2c1,.1,3.62.17,3.62.17a3.68,3.68,0,0,0,1.64-.17,10.66,10.66,0,0,0,3.81-3.18,9.69,9.69,0,0,0,2-3.55A8.55,8.55,0,0,0,19.43,25a6.65,6.65,0,0,0-2.6-3.71L16.17,20l-.56-.84a4.71,4.71,0,0,0-.33-.45l-.52-.65a1.23,1.23,0,0,0-.5-.27,1.1,1.1,0,0,0-.69.17,7.7,7.7,0,0,0-2.07,2.17l-.31-.05a4.75,4.75,0,0,0-1.25,0A10.85,10.85,0,0,0,8,20.5,6.24,6.24,0,0,0,5.3,22.37l-1-.39A3.93,3.93,0,0,0,2,22c-1,.46-.23,4.18-.23,4.18" transform="translate(-1.33 -13.5)"/><path d="M12.92,20.7a5.38,5.38,0,0,1,2.55.33l-.29-.79a2,2,0,0,0-.35-.63c-.12-.16-.27-.3-.4-.3a.87.87,0,0,0-.5.17A4.29,4.29,0,0,0,12.92,20.7Z" transform="translate(-1.33 -13.5)"/><path class="c" d="M1.85,26.54a2,2,0,0,0-.27.63l0,.16,0,.12a2.18,2.18,0,0,0,0,.22l-.05.3c0,.21,0,.42-.05.63a7.24,7.24,0,0,0,.07,1.31,5.26,5.26,0,0,0,1.09,2.55,8.92,8.92,0,0,0,2.26,1.87,8.3,8.3,0,0,0,2.78,1.19c1,.16,2,.12,3,.19.5,0,1,0,1.48.08a3.64,3.64,0,0,0,1.47-.24,8.07,8.07,0,0,0,2.29-1.64,13,13,0,0,0,3-3.87,9.37,9.37,0,0,0,.83-3.28,5.34,5.34,0,0,0,0-1.28,1.76,1.76,0,0,0-.06-.35,5.42,5.42,0,0,0-.42-1.21,7.67,7.67,0,0,0-1.41-2.08,3.73,3.73,0,0,0-.66-.56l-.17-.09-.11-.2-.23-.43a12.44,12.44,0,0,0-1.22-1.89,6.39,6.39,0,0,0-.62-.73,1.08,1.08,0,0,0-.59-.22,1.39,1.39,0,0,0-.64.24,7.59,7.59,0,0,0-1.13,1,6.77,6.77,0,0,0-.53.63c-.09.11-.17.22-.25.34l-.11.17h0l-.11,0a5.76,5.76,0,0,0-1.85,0,6.81,6.81,0,0,0-1.92.5,7.5,7.5,0,0,0-1.75,1.09,4.54,4.54,0,0,0-.38.38,1.2,1.2,0,0,0-.17.21h0l-.11-.05a9.63,9.63,0,0,0-1-.36A3.82,3.82,0,0,0,2,21.91a1,1,0,0,0-.63.86,4.59,4.59,0,0,0-.07,1,13.39,13.39,0,0,0,.11,1.38v.1l.05.28a1.84,1.84,0,0,0,.21.65,3.21,3.21,0,0,0,0-.68l0-.28,0-.09a13.72,13.72,0,0,1-.11-1.37,4.67,4.67,0,0,1,.07-1c.07-.33.2-.64.52-.73a3.7,3.7,0,0,1,2,0c.31.07.64.24,1,.35l.13.05s.08.05.12,0l.07-.11a1.46,1.46,0,0,1,.16-.19,3.06,3.06,0,0,1,.36-.36,7.26,7.26,0,0,1,1.71-1.06,6.16,6.16,0,0,1,1.87-.49,5.46,5.46,0,0,1,1.8,0l.11,0s.15.05.17,0l.13-.2.24-.34c.17-.22.35-.42.52-.61a6.72,6.72,0,0,1,1.1-.95,1.09,1.09,0,0,1,.55-.2,1,1,0,0,1,.48.18c.22.22.42.5.58.69a12.84,12.84,0,0,1,1.2,1.86l.23.43.12.22a.67.67,0,0,0,.22.14,3.72,3.72,0,0,1,.63.54A7.64,7.64,0,0,1,19,24a5.49,5.49,0,0,1,.41,1.17,1.94,1.94,0,0,1,.05.34,5.62,5.62,0,0,1,0,1.23A9.17,9.17,0,0,1,18.64,30a13.07,13.07,0,0,1-2.91,3.82,8,8,0,0,1-2.23,1.6,3.68,3.68,0,0,1-1.4.23c-.49,0-1,0-1.48-.08-1-.07-2,0-3-.19a8.11,8.11,0,0,1-2.72-1.16,9.08,9.08,0,0,1-2.22-1.83,5.06,5.06,0,0,1-1-2.47,6.84,6.84,0,0,1-.06-1.27c0-.21,0-.41,0-.61l0-.3a2.18,2.18,0,0,1,0-.22l0-.11,0-.16A4.27,4.27,0,0,0,1.85,26.54Z" transform="translate(-1.33 -13.5)"/><path d="M2.59,25.23a4.28,4.28,0,0,1,1.75-1.67s-1-.59-1.58-.45c-.35.08-.43.23-.47.42A4.14,4.14,0,0,0,2.59,25.23Z" transform="translate(-1.33 -13.5)"/><path class="h" d="M5.64,29.73a1.31,1.31,0,0,1,.65-1.16,1.14,1.14,0,0,1,1.43.13" transform="translate(-1.33 -13.5)"/><path class="h" d="M12.85,26.21a1.28,1.28,0,0,1,.79-1.08c.64-.33,1.4.3,1.4.3" transform="translate(-1.33 -13.5)"/><path class="i" d="M13.1,31.53a.85.85,0,0,1-.85.85.82.82,0,0,1-.85-.85.69.69,0,0,1,.85-.53C12.51,31.08,13.1,30.76,13.1,31.53Z" transform="translate(-1.33 -13.5)"/><path class="j" d="M11.63,30.29A1.2,1.2,0,0,1,10,31.86" transform="translate(-1.33 -13.5)"/><path class="k" d="M11.64,30.36a1,1,0,0,0,1,.72.94.94,0,0,0,1-.81" transform="translate(-1.33 -13.5)"/><path d="M12,30.14l.11-.95a.41.41,0,0,0-.45-.45h0a2.57,2.57,0,0,0-.91.37l-.05,0a.39.39,0,0,0-.08.62l.7.61A.4.4,0,0,0,12,30.14Z" transform="translate(-1.33 -13.5)"/><path class="l" d="M5.73,31.08a1.16,1.16,0,0,0-.32.08,2.19,2.19,0,0,0-.55.32,1.14,1.14,0,0,0-.44.62,1.43,1.43,0,0,0,0,.42,1.14,1.14,0,0,0,.55.95l.08,0a1.87,1.87,0,0,0,.74.16,1.25,1.25,0,0,0,.9-.37,1.34,1.34,0,0,0,.16-.23c0-.08.07-.16.1-.23a1.22,1.22,0,0,0,0-.8,1,1,0,0,0-.17-.36,1.4,1.4,0,0,0-.51-.45A.87.87,0,0,0,5.73,31.08Z" transform="translate(-1.33 -13.5)"/><path class="l" d="M17.75,26.56a1.12,1.12,0,0,0-.46-.17.93.93,0,0,0-.46.06A1.7,1.7,0,0,0,16,27a.73.73,0,0,0-.19.48,1.52,1.52,0,0,0,.06.8,1.91,1.91,0,0,0,.77.65,2,2,0,0,0,1,0,1.4,1.4,0,0,0,.44-.41,1.48,1.48,0,0,0,.32-.88,1.3,1.3,0,0,0-.05-.49A1.55,1.55,0,0,0,17.75,26.56Z" transform="translate(-1.33 -13.5)"/><path class="m" d="M13.65,29.05a1.94,1.94,0,0,1,1.2-1,3.8,3.8,0,0,1,1.55-.31" transform="translate(-1.33 -13.5)"/><path class="m" d="M14,29.57a1.79,1.79,0,0,1,1-.68,10.32,10.32,0,0,1,2.22-.41" transform="translate(-1.33 -13.5)"/><path class="m" d="M14.26,29.73a1.52,1.52,0,0,1,1.12-.28,2.67,2.67,0,0,1,1.51.71" transform="translate(-1.33 -13.5)"/><path class="m" d="M9.19,31.08a4.2,4.2,0,0,0-1.91.06A4.62,4.62,0,0,0,5.63,32" transform="translate(-1.33 -13.5)"/><path class="m" d="M8.55,31.68A2.71,2.71,0,0,0,7.41,32a9.76,9.76,0,0,0-1.62,1.44" transform="translate(-1.33 -13.5)"/><path class="m" d="M9.19,31.75a5.67,5.67,0,0,0-1.18.8,2.64,2.64,0,0,0-.68,1.14" transform="translate(-1.33 -13.5)"/></svg>