<svg xmlns="http://www.w3.org/2000/svg" viewBox="0 0 368.5 38.3"><defs><style>.a{fill:#fff;}</style></defs><path class="a" d="M0,42.6V5.35H12.51A10.83,10.83,0,0,1,18,6.62a7.64,7.64,0,0,1,3.22,3.68,14.48,14.48,0,0,1,1.06,5.86,12.54,12.54,0,0,1-1.42,6.6A7.38,7.38,0,0,1,17,25.91a16.18,16.18,0,0,1-5.47.87H8.23V42.6ZM8.23,21H11a4,4,0,0,0,2.3-.55,2.67,2.67,0,0,0,1-1.65A12.78,12.78,0,0,0,14.58,16a13.19,13.19,0,0,0-.21-2.5,2.88,2.88,0,0,0-1-1.73,3.79,3.79,0,0,0-2.44-.64H8.23Z" transform="translate(0 -4.85)"/><path class="a" d="M24.6,42.6l7-37.25H41L48,42.6H40.37l-1.24-7.86H33.66L32.37,42.6Zm9.79-12.78h4l-2-14.53Z" transform="translate(0 -4.85)"/><path class="a" d="M56.19,42.6,51.68,5.35h7l2.21,21.71L63.69,5.4h5.47L72.1,26.92,74.35,5.35h6.9L76.79,42.6H69.62L66.44,20.11l-3,22.49Z" transform="translate(0 -4.85)"/><path class="a" d="M97.25,43.15a12.37,12.37,0,0,1-5.84-1.24,8,8,0,0,1-3.54-3.84,17.57,17.57,0,0,1-1.33-6.74l7-1A16.75,16.75,0,0,0,94,34.14a4.26,4.26,0,0,0,1.1,2.11,2.5,2.5,0,0,0,1.73.65A1.63,1.63,0,0,0,98.52,36a4.42,4.42,0,0,0,.39-1.83A6.61,6.61,0,0,0,97.8,30.3a17.11,17.11,0,0,0-3-3.2L91.6,24.3A18.13,18.13,0,0,1,88,20.23a10.35,10.35,0,0,1-1.45-5.63c0-3.16.94-5.57,2.81-7.25A11,11,0,0,1,97,4.85a9.91,9.91,0,0,1,4.81,1,7.1,7.1,0,0,1,2.76,2.64A11.16,11.16,0,0,1,105.87,12a23.1,23.1,0,0,1,.4,3.47l-7.09.88c0-1.11-.1-2.06-.2-2.88a3.92,3.92,0,0,0-.67-1.88,1.83,1.83,0,0,0-1.56-.67,1.77,1.77,0,0,0-1.68,1,4,4,0,0,0-.53,1.93,5.47,5.47,0,0,0,1,3.38,19,19,0,0,0,2.6,2.73l3.08,2.72a21,21,0,0,1,4.11,4.69A11.76,11.76,0,0,1,107,33.77a9.66,9.66,0,0,1-1.19,4.76,8.78,8.78,0,0,1-3.38,3.38A10.29,10.29,0,0,1,97.25,43.15Z" transform="translate(0 -4.85)"/><path class="a" d="M112.61,42.6V5.35h8.23V42.6Z" transform="translate(0 -4.85)"/><path class="a" d="M132.06,42.6V11.47h-5.61V5.35H145.9v6.12h-5.56V42.6Z" transform="translate(0 -4.85)"/><path class="a" d="M151.51,42.6V5.35h8.23V42.6Z" transform="translate(0 -4.85)"/><path class="a" d="M172.57,42.6,165.86,5.35h7l4,25.29,3.73-25.29h7.45L181.26,42.6Z" transform="translate(0 -4.85)"/><path class="a" d="M194.09,42.6V5.35h16.74V11h-8.51v9.25h6.48v5.7h-6.48V37h8.6V42.6Z" transform="translate(0 -4.85)"/><path class="a" d="M216.94,42.6V5.35h8.23V37h8.56V42.6Z" transform="translate(0 -4.85)"/><path class="a" d="M241.08,42.6V27.38L234,5.35h7.77l3.54,11.78,3.18-11.78h7.45l-6.95,22V42.6Z" transform="translate(0 -4.85)"/><path class="a" d="M275.06,42.6V5.35h12.51a10.84,10.84,0,0,1,5.52,1.27,7.74,7.74,0,0,1,3.22,3.68,14.65,14.65,0,0,1,1.06,5.86,12.54,12.54,0,0,1-1.43,6.6,7.4,7.4,0,0,1-3.86,3.15,16.22,16.22,0,0,1-5.47.87H283.3V42.6ZM283.3,21h2.75a3.94,3.94,0,0,0,2.3-.55,2.68,2.68,0,0,0,1-1.65,12.86,12.86,0,0,0,.25-2.81,13.19,13.19,0,0,0-.21-2.5,2.82,2.82,0,0,0-1-1.73,3.83,3.83,0,0,0-2.44-.64H283.3Z" transform="translate(0 -4.85)"/><path class="a" d="M303.25,42.6V5.35H320V11h-8.51v9.25H318v5.7h-6.49V37h8.6V42.6Z" transform="translate(0 -4.85)"/><path class="a" d="M329.46,42.6V11.47h-5.61V5.35H343.3v6.12h-5.56V42.6Z" transform="translate(0 -4.85)"/><path class="a" d="M358.75,43.15a12.37,12.37,0,0,1-5.84-1.24,8,8,0,0,1-3.54-3.84A17.57,17.57,0,0,1,348,31.33l7-1a16.75,16.75,0,0,0,.44,3.86,4.26,4.26,0,0,0,1.1,2.11,2.5,2.5,0,0,0,1.73.65A1.63,1.63,0,0,0,360,36a4.42,4.42,0,0,0,.39-1.83,6.61,6.61,0,0,0-1.11-3.89,17.11,17.11,0,0,0-3-3.2l-3.21-2.8a18.13,18.13,0,0,1-3.57-4.07,10.35,10.35,0,0,1-1.45-5.63c0-3.16.94-5.57,2.81-7.25a11,11,0,0,1,7.63-2.5,9.93,9.93,0,0,1,4.81,1,7.1,7.1,0,0,1,2.76,2.64A11.16,11.16,0,0,1,367.37,12a21.81,21.81,0,0,1,.39,3.47l-7.08.88c0-1.11-.1-2.06-.2-2.88a3.92,3.92,0,0,0-.67-1.88,1.83,1.83,0,0,0-1.56-.67,1.77,1.77,0,0,0-1.68,1,4,4,0,0,0-.53,1.93,5.47,5.47,0,0,0,1,3.38,19,19,0,0,0,2.6,2.73l3.08,2.72a21,21,0,0,1,4.11,4.69,11.76,11.76,0,0,1,1.68,6.48,9.56,9.56,0,0,1-1.2,4.76,8.65,8.65,0,0,1-3.38,3.38A10.25,10.25,0,0,1,358.75,43.15Z" transform="translate(0 -4.85)"/></svg>